<svg xmlns="http://www.w3.org/2000/svg" viewBox="0 0 32 32" width="24" height="24"><path d="M9.779 8.888c-1.472 0-2.667 1.195-2.667 2.667s1.195 2.667 2.667 2.667 2.667-1.195 2.667-2.667-1.195-2.667-2.667-2.667zM20.924 10.485c-0.715-0.836-2.011-0.827-2.715 0.020l-7.543 9.051-2.297-2.299c-0.695-0.695-1.82-0.695-2.516 0l-2.299 2.299v-12.444h24.889v12.148l-7.52-8.773zM28.444 5.333h-24.889c-0.981 0-1.778 0.795-1.778 1.778v17.778c0 0.981 0.796 1.778 1.778 1.778h24.889c0.983 0 1.778-0.796 1.778-1.778v-17.778c0-0.983-0.795-1.778-1.778-1.778z"></path></svg>