<svg xmlns="http://www.w3.org/2000/svg" viewBox="0 0 32 32" width="24" height="24"><path d="M9.778 12.444c-0.491 0-0.889-0.4-0.889-0.889s0.398-0.889 0.889-0.889c0.491 0 0.889 0.4 0.889 0.889s-0.398 0.889-0.889 0.889zM9.778 8.889c-1.474 0-2.667 1.195-2.667 2.667s1.193 2.667 2.667 2.667c1.474 0 2.667-1.195 2.667-2.667s-1.193-2.667-2.667-2.667z"></path><path d="M20.924 10.485c-0.354-0.414-0.852-0.622-1.349-0.622-0.505 0-1.010 0.215-1.365 0.642l-7.543 9.051-2.297-2.299c-0.348-0.348-0.804-0.521-1.259-0.521-0.453 0-0.908 0.172-1.257 0.521l-2.299 2.299v-12.444h24.889v12.148l-7.52-8.773zM28.444 24.889h-24.889v-2.82l3.556-3.556 2.299 2.299c0.74 0.74 1.954 0.683 2.624-0.121l7.541-9.051 8.869 10.35v2.898zM28.444 5.333h-24.889c-0.981 0-1.778 0.795-1.778 1.778v17.778c0 0.981 0.796 1.778 1.778 1.778h24.889c0.983 0 1.778-0.796 1.778-1.778v-17.778c0-0.983-0.795-1.778-1.778-1.778z"></path></svg>