<svg xmlns="http://www.w3.org/2000/svg" viewBox="0 0 32 32" width="24" height="24"><path d="M16 28.444c6.873 0 12.444-5.572 12.444-12.444s-5.572-12.444-12.444-12.444c-6.873 0-12.444 5.572-12.444 12.444s5.572 12.444 12.444 12.444zM16 30.222c-7.855 0-14.222-6.367-14.222-14.222s6.367-14.222 14.222-14.222 14.222 6.367 14.222 14.222-6.367 14.222-14.222 14.222z"></path><path d="M14.845 8.244c-0.004-0.184 0.127-0.333 0.32-0.333h1.849c0.181 0 0.324 0.14 0.32 0.333l-0.263 11.779c-0.004 0.184-0.16 0.333-0.329 0.333h-1.304c-0.178 0-0.325-0.14-0.329-0.333l-0.263-11.779zM16.089 24.089c-0.687 0-1.244-0.557-1.244-1.244s0.557-1.244 1.244-1.244 1.244 0.557 1.244 1.244-0.557 1.244-1.244 1.244z"></path></svg>