<svg xmlns="http://www.w3.org/2000/svg" viewBox="0 0 32 32" width="24" height="24"><path d="M16 1.778c7.855 0 14.222 6.367 14.222 14.222s-6.367 14.222-14.222 14.222-14.222-6.367-14.222-14.222 6.367-14.222 14.222-14.222zM16.089 21.6c-0.687 0-1.244 0.557-1.244 1.244s0.557 1.244 1.244 1.244 1.244-0.557 1.244-1.244c0-0.687-0.557-1.244-1.244-1.244zM17.013 7.911h-1.849c-0.193 0-0.324 0.149-0.32 0.333l0.263 11.779c0.004 0.193 0.151 0.333 0.329 0.333h1.304c0.169 0 0.325-0.149 0.329-0.333l0.263-11.779c0.004-0.193-0.139-0.333-0.32-0.333z"></path></svg>